# xmcd CD database file
#
# Track frame offsets:
#	150
#	13267
#	29390
#	43565
#	63320
#	94792
#	108180
#	129690
#	155690
#	176310
#	199577
#	217935
#	241195
#
# Disc length: 3444 seconds
#
# Revision: 1
# Processed by: cddbd v1.4PL0 Copyright (c) Steve Scherf et al.
# Submitted via: CDex 1.40Beta9
#
DISCID=a60d720d
DTITLE=Claude Williams - The Definitive Black and Blue Sessions
DYEAR=1998
DGENRE=Blues
TTITLE0=01-C Jam Blues
TTITLE1=02-Fiddler's Dream
TTITLE2=03-Sweet Georgia Brown
TTITLE3=04-That Certain Someone
TTITLE4=05-Canadian SUnset
TTITLE5=06-From 4 to 6
TTITLE6=07All of Me
TTITLE7=08-Blue Moon
TTITLE8=09-Exactly Like You
TTITLE9=10-My Silent Love
TTITLE10=11-For Basie
TTITLE11=12-You Are My Desire
TTITLE12=13-Exactly Like You, take 2
EXTD=YEAR: 1998 ID3G: 0
EXTT0=
EXTT1=
EXTT2=
EXTT3=
EXTT4=
EXTT5=
EXTT6=
EXTT7=
EXTT8=
EXTT9=
EXTT10=
EXTT11=
EXTT12=
PLAYORDER=
